<?xml version="1.0" encoding="UTF-8"?>
<!DOCTYPE svg PUBLIC "-//W3C//DTD SVG 1.1//EN" "http://www.w3.org/Graphics/SVG/1.1/DTD/svg11.dtd">
<!-- Creator: CorelDRAW X7 -->
<svg xmlns="http://www.w3.org/2000/svg" xml:space="preserve" width="1.66666in" height="1.66666in" version="1.1" style="shape-rendering:geometricPrecision; text-rendering:geometricPrecision; image-rendering:optimizeQuality; fill-rule:evenodd; clip-rule:evenodd"
viewBox="0 0 1667 1667"
 xmlns:xlink="http://www.w3.org/1999/xlink">
 <defs>
  <style type="text/css">
   <![CDATA[
    .str0 {stroke:#11446D;stroke-width:3.33071}
    .fil0 {fill:none}
    .fil1 {fill:#11446D;fill-rule:nonzero}
   ]]>
  </style>
 </defs>
 <g id="Layer_x0020_1">
  <metadata id="CorelCorpID_0Corel-Layer"/>
  <g id="_1976677765552">
   <g>
    <ellipse class="fil0 str0" cx="593" cy="559" rx="70" ry="97"/>
    <ellipse class="fil0 str0" transform="matrix(2.48118E-014 -1.07797 0.951148 2.95233E-014 590.49 559.873)" rx="75" ry="102"/>
   </g>
   <g>
    <ellipse class="fil0 str0" cx="786" cy="560" rx="70" ry="97"/>
    <ellipse class="fil0 str0" transform="matrix(2.48118E-014 -1.07797 0.951148 2.95233E-014 783.821 560.196)" rx="75" ry="102"/>
   </g>
   <g>
    <ellipse class="fil0 str0" cx="979" cy="556" rx="70" ry="97"/>
    <ellipse class="fil0 str0" transform="matrix(2.48118E-014 -1.07797 0.951148 2.95233E-014 977.156 556.861)" rx="75" ry="102"/>
   </g>
   <path class="fil1" d="M540 608l0 -5c1,0 3,0 5,-1 4,-1 6,-1 7,-2 1,0 2,-2 3,-4l15 -40 18 -46c1,0 3,0 5,0l3 0 1 1 13 31c2,7 5,13 7,19 3,6 5,11 6,15 1,2 3,6 5,11 0,2 2,5 4,9 1,2 1,3 2,4 1,1 2,1 4,1 2,1 5,1 7,2 0,2 0,3 0,4 0,0 0,1 0,1 -4,0 -8,0 -12,0 -4,-1 -8,-1 -12,-1 -4,0 -7,0 -8,0l-13 1 -4 0c0,-1 0,-3 0,-5l9 -2c2,0 4,-1 4,-1 1,-1 1,-1 1,-2 0,0 0,-1 -1,-2l-3 -7 -5 -15 -29 0c-1,3 -3,9 -6,18 -1,2 -2,4 -2,5 0,1 0,2 1,3 1,1 3,2 7,2 0,0 2,0 5,1 0,1 0,3 0,3 0,1 0,1 0,2 -3,0 -10,0 -22,-1l-3 0c-4,1 -7,1 -11,1l-1 0zm35 -42c12,1 19,1 21,1l1 0c-1,-5 -3,-10 -5,-16 -3,-6 -5,-10 -6,-13l-11 28z"/>
   <path class="fil1" d="M825 513c1,2 2,6 4,13 1,3 1,7 1,10l-7 0c-4,-7 -9,-12 -14,-14 -5,-3 -11,-5 -17,-5 -8,0 -14,3 -19,9 -6,8 -10,20 -10,34 0,9 1,15 2,18 2,6 4,11 7,14 2,3 5,5 8,7 4,2 9,3 14,3 6,0 11,-1 16,-5 5,-3 10,-8 15,-15 1,0 4,-1 7,-1 0,2 -1,4 -1,6 0,1 -1,4 -2,10l-1 2 -1 4c-3,2 -7,4 -12,5 -6,1 -13,2 -21,2 -6,0 -12,-1 -17,-2 -5,-1 -10,-3 -14,-6 -6,-3 -10,-7 -13,-11 -4,-4 -6,-9 -8,-14 -1,-5 -2,-10 -2,-16 0,-15 5,-27 15,-37 10,-10 22,-15 37,-15 6,0 12,1 18,1 5,1 10,2 15,3z"/>
   <path class="fil1" d="M930 600c2,-1 4,-1 6,-1 3,-1 5,-1 5,-1 2,0 4,0 4,-1 1,-1 1,-2 1,-3l0 -9 0 -10 0 -6 0 -8 0 -7 0 -17 0 -8 0 -1c0,-5 0,-8 -1,-8 0,-1 -1,-2 -4,-2 0,0 -1,-1 -3,-1 -1,-1 -2,-1 -3,-2 -2,0 -3,0 -4,-1 0,-1 0,-2 0,-3 0,0 0,-1 0,-2 1,0 1,0 2,0 1,0 5,0 13,0l10 0 8 1c4,0 8,-1 13,-1 2,0 3,0 3,0 1,0 1,0 2,0 0,1 0,2 0,3 0,1 0,2 -1,3 0,0 -1,0 -3,1l-9 2c0,0 -1,0 -1,0 -1,1 -1,1 -1,1l0 2 0 5 0 1 0 1c0,1 0,2 0,4 0,1 0,2 0,2 0,1 0,2 0,4 0,3 0,6 0,8 0,3 0,6 0,9 0,1 0,3 0,5l-1 35c0,2 1,3 1,3l7 1 5 -1 4 1c8,0 15,-1 19,-3 4,-2 6,-3 7,-4 2,-2 3,-3 4,-5 1,-2 2,-5 4,-9l2 0c1,0 3,0 4,0l0 2c0,4 0,10 -1,19 -1,4 -1,6 -1,7 -1,0 -2,0 -2,0l-3 0 -4 0c-1,0 -4,0 -9,0 -1,0 -6,-1 -14,-1 -9,0 -17,0 -25,0l-15 0c-6,0 -12,1 -17,1l-1 0c0,0 -1,0 -1,0 -1,-1 -1,-1 -1,-2 0,-2 1,-3 1,-4z"/>
  </g>
 </g>
</svg>
