<svg width="14" height="4" viewBox="0 0 14 4" fill="none" xmlns="http://www.w3.org/2000/svg">
<path d="M0 3.8009V3.60894C0.0383923 3.60894 0.115177 3.60894 0.191962 3.57055C0.345531 3.53216 0.422315 3.53216 0.460708 3.49376C0.4991 3.49376 0.537492 3.41698 0.575885 3.34019L1.15177 1.8045L1.84283 0.0384521C1.88122 0.0384521 1.95801 0.0384521 2.03479 0.0384521H2.14997L2.18836 0.0768445L2.68746 1.26701C2.76425 1.53575 2.87942 1.76611 2.95621 1.99646C3.07139 2.22682 3.14817 2.41878 3.18656 2.57235C3.22495 2.64913 3.30174 2.8027 3.37852 2.99466C3.37852 3.07145 3.45531 3.18663 3.53209 3.34019C3.57049 3.41698 3.57049 3.45537 3.60888 3.49376C3.64727 3.53216 3.68566 3.53216 3.76245 3.53216C3.83923 3.57055 3.95441 3.57055 4.03119 3.60894C4.03119 3.68573 4.03119 3.72412 4.03119 3.76251V3.8009C3.87762 3.8009 3.72405 3.8009 3.57049 3.8009C3.41692 3.76251 3.26335 3.76251 3.10978 3.76251C2.95621 3.76251 2.84103 3.76251 2.80264 3.76251L2.30354 3.8009H2.14997C2.14997 3.76251 2.14997 3.68573 2.14997 3.60894L2.4955 3.53216C2.57228 3.53216 2.64907 3.49376 2.64907 3.49376C2.68746 3.45537 2.68746 3.45537 2.68746 3.41698C2.68746 3.41698 2.68746 3.37859 2.64907 3.34019L2.53389 3.07145L2.34193 2.49556H1.22855C1.19016 2.61074 1.11338 2.84109 0.9982 3.18663C0.959808 3.26341 0.921416 3.34019 0.921416 3.37859C0.921416 3.41698 0.921416 3.45537 0.959808 3.49376C0.9982 3.53216 1.07498 3.57055 1.22855 3.57055C1.22855 3.57055 1.30534 3.57055 1.42052 3.60894C1.42052 3.64733 1.42052 3.72412 1.42052 3.72412C1.42052 3.76251 1.42052 3.76251 1.42052 3.8009C1.30534 3.8009 1.03659 3.8009 0.575885 3.76251H0.460708C0.307139 3.8009 0.191962 3.8009 0.0383923 3.8009H0ZM1.34373 2.18842C1.80444 2.22682 2.07318 2.22682 2.14997 2.22682H2.18836C2.14997 2.03485 2.07318 1.84289 1.9964 1.61254C1.88122 1.38218 1.80444 1.22862 1.76605 1.11344L1.34373 2.18842Z" fill="white"/>
<path d="M8.2946 0.153569C8.33299 0.230354 8.37138 0.383923 8.44817 0.65267C8.48656 0.767847 8.48656 0.921416 8.48656 1.03659H8.21781C8.06424 0.767847 7.87228 0.575885 7.68032 0.4991C7.48836 0.383923 7.25801 0.307139 7.02765 0.307139C6.72051 0.307139 6.49016 0.422316 6.2982 0.65267C6.06784 0.959809 5.91427 1.42052 5.91427 1.95801C5.91427 2.30354 5.95267 2.53389 5.99106 2.64907C6.06784 2.87943 6.14463 3.07139 6.2598 3.18656C6.33659 3.30174 6.45177 3.37853 6.56694 3.45531C6.72051 3.5321 6.91247 3.57049 7.10444 3.57049C7.33479 3.57049 7.52675 3.5321 7.71871 3.37853C7.91068 3.26335 8.10264 3.07139 8.2946 2.80264C8.33299 2.80264 8.44817 2.76425 8.56334 2.76425C8.56334 2.84103 8.52495 2.91782 8.52495 2.9946C8.52495 3.033 8.48656 3.14817 8.44817 3.37853L8.40978 3.45531L8.37138 3.60888C8.25621 3.68566 8.10264 3.76245 7.91068 3.80084C7.68032 3.83923 7.41157 3.87763 7.10444 3.87763C6.87408 3.87763 6.64373 3.83923 6.45177 3.80084C6.2598 3.76245 6.06784 3.68566 5.91427 3.57049C5.68392 3.45531 5.53035 3.30174 5.41517 3.14817C5.2616 2.9946 5.18482 2.80264 5.10803 2.61068C5.06964 2.41872 5.03125 2.22676 5.03125 1.9964C5.03125 1.42052 5.22321 0.959809 5.60714 0.575885C5.99106 0.191962 6.45177 0 7.02765 0C7.25801 0 7.48836 0.0383923 7.71871 0.0383923C7.91068 0.0767847 8.10264 0.115177 8.2946 0.153569Z" fill="white"/>
<path d="M9.60162 3.4937C9.67841 3.45531 9.75519 3.45531 9.83198 3.45531C9.94716 3.41692 10.0239 3.41692 10.0239 3.41692C10.1007 3.41692 10.1775 3.41692 10.1775 3.37853C10.2159 3.34013 10.2159 3.30174 10.2159 3.26335V2.91782V2.53389V2.30354V1.9964V1.72765V1.07499V0.767847V0.729454C10.2159 0.537493 10.2159 0.422316 10.1775 0.422316C10.1775 0.383923 10.1391 0.345531 10.0239 0.345531C10.0239 0.345531 9.98555 0.307139 9.90876 0.307139C9.87037 0.268746 9.83198 0.268746 9.79359 0.230354C9.7168 0.230354 9.67841 0.230354 9.64002 0.191962C9.64002 0.153569 9.64002 0.115177 9.64002 0.0767847C9.64002 0.0767847 9.64002 0.0383923 9.64002 0C9.67841 0 9.67841 0 9.7168 0C9.75519 0 9.90876 0 10.2159 0H10.5998L10.907 0.0383923C11.0605 0.0383923 11.2141 0 11.4061 0C11.4828 0 11.5212 0 11.5212 0C11.5596 0 11.5596 0 11.598 0C11.598 0.0383923 11.598 0.0767847 11.598 0.115177C11.598 0.153569 11.598 0.191962 11.5596 0.230354C11.5596 0.230354 11.5212 0.230354 11.4445 0.268746L11.0989 0.345531H11.0605C11.0221 0.383923 11.0221 0.383923 11.0221 0.383923V0.460708V0.65267V0.691062V0.729454C11.0221 0.767847 11.0221 0.806239 11.0221 0.883024C11.0221 0.921416 11.0221 0.959808 11.0221 0.959808C11.0221 0.998201 11.0221 1.03659 11.0221 1.11338C11.0221 1.22855 11.0221 1.34373 11.0221 1.42052C11.0221 1.53569 11.0221 1.65087 11.0221 1.76605C11.0221 1.80444 11.0221 1.88122 11.0221 1.95801L10.9837 3.30174C10.9837 3.37853 11.0221 3.41692 11.0221 3.41692L11.2909 3.45531L11.4828 3.41692L11.6364 3.45531C11.9436 3.45531 12.2123 3.41692 12.3659 3.34013C12.5194 3.26335 12.5962 3.22496 12.6346 3.18656C12.7114 3.10978 12.7498 3.07139 12.7882 2.9946C12.8266 2.91782 12.865 2.80264 12.9418 2.64907H13.0185C13.0569 2.64907 13.1337 2.64907 13.1721 2.64907V2.72586C13.1721 2.87942 13.1721 3.10978 13.1337 3.45531C13.0953 3.60888 13.0953 3.68566 13.0953 3.72406C13.0569 3.72406 13.0185 3.72406 13.0185 3.72406H12.9034H12.7498C12.7114 3.72406 12.5962 3.72406 12.4043 3.72406C12.3659 3.72406 12.1739 3.68566 11.8668 3.68566C11.5212 3.68566 11.2141 3.68566 10.907 3.68566H10.3311C10.1007 3.68566 9.87037 3.72406 9.67841 3.72406H9.64002H9.60162C9.56323 3.68566 9.56323 3.68566 9.56323 3.64727C9.56323 3.57049 9.60162 3.53209 9.60162 3.4937Z" fill="white"/>
</svg>
